<svg width="24" height="24" viewBox="0 0 24 24" fill="none" xmlns="http://www.w3.org/2000/svg">
<g clip-path="url(#clip0_1068_30023)">
<path d="M4.88996 22.38L4.8899 22.3803C4.87154 22.4846 4.91193 22.5644 4.97032 22.6107C5.02634 22.6552 5.08404 22.661 5.14365 22.6307L4.88996 22.38ZM4.88996 22.38L6.13496 15.285L6.1905 14.9685M4.88996 22.38L6.1905 14.9685M6.1905 14.9685L5.95784 14.7468M6.1905 14.9685L5.95784 14.7468M5.95784 14.7468L0.673749 9.71323C0.673698 9.71318 0.673648 9.71313 0.673597 9.71309C0.608464 9.65082 0.585241 9.55967 0.613646 9.46432C0.641794 9.36984 0.702135 9.32562 0.767527 9.31643L0.768406 9.31631M5.95784 14.7468L0.768406 9.31631M0.768406 9.31631L8.11541 8.27231L8.4255 8.22824L8.56663 7.94863L11.8425 1.4583M0.768406 9.31631L11.8425 1.4583M11.8425 1.4583C11.8426 1.45824 11.8426 1.45819 11.8426 1.45813L11.8425 1.4583ZM11.7257 19.2467L5.14415 22.6304H18.8603L12.2742 19.2466L11.9999 19.1057L11.7257 19.2467ZM12.1619 1.4583L15.4379 7.94863L15.579 8.22824L15.8891 8.27231L23.2361 9.31631L23.237 9.31643C23.3024 9.32563 23.3626 9.36983 23.3906 9.46398C23.4188 9.55892 23.3957 9.65002 23.3299 9.7126L23.3296 9.7129L18.0466 14.7469L17.814 14.9685L17.8695 15.285L19.1145 22.38L19.1146 22.3803C19.133 22.4846 19.0926 22.5644 19.0342 22.6107C18.9781 22.6552 18.9204 22.6611 18.8607 22.6306L12.1619 1.4583Z" stroke="#E64B13" stroke-width="1.2"/>
</g>
<defs>
<clipPath id="clip0_1068_30023">
<rect width="24" height="24" fill="white"/>
</clipPath>
</defs>
</svg>
