<svg width="181" height="16" viewBox="0 0 181 16" fill="none" xmlns="http://www.w3.org/2000/svg">
<path d="M8.696 3.792C9.592 3.792 10.3173 4.08533 10.872 4.672C11.4267 5.248 11.704 6.032 11.704 7.024V12H10.312V7.072C10.312 6.45333 10.152 5.97333 9.832 5.632C9.512 5.29067 9.08533 5.12 8.552 5.12C7.95467 5.12 7.47467 5.32267 7.112 5.728C6.76 6.12267 6.584 6.73067 6.584 7.552V12H5.192V7.072C5.192 6.45333 5.03733 5.97333 4.728 5.632C4.42933 5.29067 4.01867 5.12 3.496 5.12C2.90933 5.12 2.41867 5.32267 2.024 5.728C1.64 6.13333 1.448 6.74133 1.448 7.552V12H0.056V4H1.448V5.072C1.992 4.21867 2.78667 3.792 3.832 3.792C4.90933 3.792 5.69333 4.24533 6.184 5.152C6.73867 4.24533 7.576 3.792 8.696 3.792ZM14.5141 12.176C14.2261 12.176 13.9808 12.0747 13.7781 11.872C13.5755 11.6693 13.4741 11.424 13.4741 11.136C13.4741 10.848 13.5755 10.6027 13.7781 10.4C13.9808 10.1973 14.2261 10.096 14.5141 10.096C14.8128 10.096 15.0581 10.1973 15.2501 10.4C15.4528 10.6027 15.5541 10.848 15.5541 11.136C15.5541 11.424 15.4528 11.6693 15.2501 11.872C15.0581 12.0747 14.8128 12.176 14.5141 12.176ZM22.2288 2.544C21.9621 2.544 21.7381 2.45333 21.5568 2.272C21.3754 2.09067 21.2848 1.872 21.2848 1.616C21.2848 1.36 21.3754 1.14133 21.5568 0.959999C21.7381 0.768 21.9621 0.672 22.2288 0.672C22.4848 0.672 22.7034 0.768 22.8848 0.959999C23.0661 1.14133 23.1568 1.36 23.1568 1.616C23.1568 1.872 23.0661 2.09067 22.8848 2.272C22.7034 2.45333 22.4848 2.544 22.2288 2.544ZM21.5247 12V4H22.9168V12H21.5247ZM29.0244 3.792C29.963 3.792 30.715 4.09067 31.2804 4.688C31.8457 5.27467 32.1284 6.07467 32.1284 7.088V12H30.7364V7.168C30.7364 6.51733 30.5604 6.016 30.2084 5.664C29.8564 5.30133 29.371 5.12 28.7524 5.12C28.059 5.12 27.499 5.33867 27.0724 5.776C26.6457 6.20267 26.4324 6.864 26.4324 7.76V12H25.0404V4H26.4324V5.152C26.9977 4.24533 27.8617 3.792 29.0244 3.792ZM38.1836 1.936C36.7756 1.81867 36.0716 2.42667 36.0716 3.76V4H38.1836V5.344H36.0716V12H34.6796V5.344H33.3996V4H34.6796V3.76C34.6796 2.68267 34.9783 1.86667 35.5756 1.312C36.1836 0.757333 37.053 0.517333 38.1836 0.591999V1.936ZM45.558 10.992C44.7367 11.8027 43.7393 12.208 42.566 12.208C41.3927 12.208 40.3953 11.8027 39.574 10.992C38.7633 10.1813 38.358 9.184 38.358 8C38.358 6.816 38.7633 5.81867 39.574 5.008C40.3953 4.19733 41.3927 3.792 42.566 3.792C43.7393 3.792 44.7367 4.19733 45.558 5.008C46.3793 5.81867 46.79 6.816 46.79 8C46.79 9.184 46.3793 10.1813 45.558 10.992ZM42.566 10.848C43.366 10.848 44.038 10.576 44.582 10.032C45.126 9.488 45.398 8.81067 45.398 8C45.398 7.18933 45.126 6.512 44.582 5.968C44.038 5.424 43.366 5.152 42.566 5.152C41.7767 5.152 41.11 5.424 40.566 5.968C40.022 6.512 39.75 7.18933 39.75 8C39.75 8.81067 40.022 9.488 40.566 10.032C41.11 10.576 41.7767 10.848 42.566 10.848ZM55.055 4H56.447V15.2H55.055V10.624C54.3617 11.68 53.3537 12.208 52.031 12.208C50.911 12.208 49.9563 11.8027 49.167 10.992C48.3777 10.1707 47.983 9.17333 47.983 8C47.983 6.82667 48.3777 5.83467 49.167 5.024C49.9563 4.20267 50.911 3.792 52.031 3.792C53.3537 3.792 54.3617 4.32 55.055 5.376V4ZM52.207 10.864C53.0177 10.864 53.695 10.592 54.239 10.048C54.783 9.49333 55.055 8.81067 55.055 8C55.055 7.18933 54.783 6.512 54.239 5.968C53.695 5.41333 53.0177 5.136 52.207 5.136C51.407 5.136 50.735 5.41333 50.191 5.968C49.647 6.512 49.375 7.18933 49.375 8C49.375 8.81067 49.647 9.49333 50.191 10.048C50.735 10.592 51.407 10.864 52.207 10.864ZM65.18 4H66.572V12H65.18V10.624C64.4867 11.68 63.4787 12.208 62.156 12.208C61.036 12.208 60.0813 11.8027 59.292 10.992C58.5027 10.1707 58.108 9.17333 58.108 8C58.108 6.82667 58.5027 5.83467 59.292 5.024C60.0813 4.20267 61.036 3.792 62.156 3.792C63.4787 3.792 64.4867 4.32 65.18 5.376V4ZM62.332 10.864C63.1427 10.864 63.82 10.592 64.364 10.048C64.908 9.49333 65.18 8.81067 65.18 8C65.18 7.18933 64.908 6.512 64.364 5.968C63.82 5.41333 63.1427 5.136 62.332 5.136C61.532 5.136 60.86 5.41333 60.316 5.968C59.772 6.512 59.5 7.18933 59.5 8C59.5 8.81067 59.772 9.49333 60.316 10.048C60.86 10.592 61.532 10.864 62.332 10.864ZM70.073 5.344C70.5317 4.352 71.3637 3.856 72.569 3.856V5.312C71.8863 5.28 71.2997 5.46133 70.809 5.856C70.3183 6.25067 70.073 6.88533 70.073 7.76V12H68.681V4H70.073V5.344ZM74.8341 6.16C74.8341 6.46933 74.9888 6.72 75.2981 6.912C75.6075 7.09333 75.9808 7.24267 76.4181 7.36C76.8555 7.46667 77.2928 7.59467 77.7301 7.744C78.1675 7.88267 78.5408 8.128 78.8501 8.48C79.1595 8.82133 79.3141 9.264 79.3141 9.808C79.3141 10.5333 79.0315 11.1147 78.4661 11.552C77.9115 11.9893 77.1968 12.208 76.3221 12.208C75.5435 12.208 74.8768 12.0373 74.3221 11.696C73.7675 11.3547 73.3728 10.9013 73.1381 10.336L74.3381 9.648C74.4661 10.032 74.7061 10.336 75.0581 10.56C75.4101 10.784 75.8315 10.896 76.3221 10.896C76.7808 10.896 77.1595 10.8107 77.4581 10.64C77.7568 10.4587 77.9061 10.1813 77.9061 9.808C77.9061 9.49867 77.7515 9.25333 77.4421 9.072C77.1328 8.88 76.7595 8.73067 76.3221 8.624C75.8848 8.50667 75.4475 8.37333 75.0101 8.224C74.5728 8.07467 74.1995 7.82933 73.8901 7.488C73.5808 7.14667 73.4261 6.70933 73.4261 6.176C73.4261 5.48267 73.6928 4.912 74.2261 4.464C74.7701 4.016 75.4475 3.792 76.2581 3.792C76.9088 3.792 77.4848 3.94133 77.9861 4.24C78.4981 4.528 78.8821 4.93333 79.1381 5.456L77.9701 6.112C77.6821 5.42933 77.1115 5.088 76.2581 5.088C75.8635 5.088 75.5275 5.184 75.2501 5.376C74.9728 5.55733 74.8341 5.81867 74.8341 6.16ZM84.8681 3.792C85.8068 3.792 86.5588 4.09067 87.1241 4.688C87.6895 5.27467 87.9721 6.07467 87.9721 7.088V12H86.5801V7.168C86.5801 6.51733 86.4041 6.016 86.0521 5.664C85.7001 5.30133 85.2148 5.12 84.5961 5.12C83.9028 5.12 83.3428 5.33867 82.9161 5.776C82.4895 6.20267 82.2761 6.864 82.2761 7.76V12H80.8841V0.799999H82.2761V5.152C82.8415 4.24533 83.7055 3.792 84.8681 3.792ZM90.6194 2.544C90.3527 2.544 90.1287 2.45333 89.9474 2.272C89.766 2.09067 89.6754 1.872 89.6754 1.616C89.6754 1.36 89.766 1.14133 89.9474 0.959999C90.1287 0.768 90.3527 0.672 90.6194 0.672C90.8754 0.672 91.094 0.768 91.2754 0.959999C91.4567 1.14133 91.5474 1.36 91.5474 1.616C91.5474 1.872 91.4567 2.09067 91.2754 2.272C91.094 2.45333 90.8754 2.544 90.6194 2.544ZM89.9154 12V4H91.3074V12H89.9154ZM98.807 2.208C99.9377 2.208 100.94 2.48533 101.815 3.04C102.69 3.584 103.34 4.26667 103.767 5.088C104.194 5.90933 104.407 6.77333 104.407 7.68C104.407 8.8 104.172 9.65333 103.703 10.24C103.234 10.816 102.674 11.104 102.023 11.104C101.01 11.104 100.375 10.656 100.119 9.76C99.6923 10.304 99.1217 10.576 98.407 10.576C97.6817 10.576 97.079 10.3307 96.599 9.84C96.1297 9.34933 95.895 8.736 95.895 8C95.895 7.264 96.1297 6.65067 96.599 6.16C97.079 5.66933 97.6817 5.424 98.407 5.424C99.047 5.424 99.5857 5.65867 100.023 6.128V5.552H101.255V9.088C101.255 10.0267 101.591 10.496 102.263 10.496C102.732 10.496 103.116 10.2667 103.415 9.808C103.724 9.33867 103.879 8.62933 103.879 7.68C103.879 6.272 103.388 5.088 102.407 4.128C101.436 3.168 100.236 2.688 98.807 2.688C97.335 2.688 96.0817 3.2 95.047 4.224C94.0123 5.23733 93.495 6.496 93.495 8C93.495 9.536 94.023 10.8053 95.079 11.808C96.1457 12.8107 97.4843 13.312 99.095 13.312C100.151 13.312 101.058 13.1627 101.815 12.864V13.376C101.068 13.6533 100.162 13.792 99.095 13.792C97.3457 13.792 95.8897 13.2427 94.727 12.144C93.5643 11.056 92.983 9.67467 92.983 8C92.983 6.38933 93.5377 5.024 94.647 3.904C95.767 2.77333 97.1537 2.208 98.807 2.208ZM97.559 9.04C97.847 9.296 98.1937 9.424 98.599 9.424C99.0043 9.424 99.3403 9.296 99.607 9.04C99.8843 8.77333 100.023 8.42667 100.023 8C100.023 7.57333 99.8843 7.232 99.607 6.976C99.3403 6.70933 99.0043 6.576 98.599 6.576C98.1937 6.576 97.847 6.70933 97.559 6.976C97.2817 7.232 97.143 7.57333 97.143 8C97.143 8.42667 97.2817 8.77333 97.559 9.04ZM112.696 4H114.072V11.664C114.072 12.848 113.672 13.7653 112.872 14.416C112.072 15.0773 111.112 15.408 109.992 15.408C109.096 15.408 108.323 15.2373 107.672 14.896C107.021 14.5653 106.531 14.0853 106.2 13.456L107.416 12.768C107.853 13.664 108.723 14.112 110.024 14.112C110.856 14.112 111.507 13.8933 111.976 13.456C112.456 13.0187 112.696 12.4213 112.696 11.664V10.528C111.992 11.5947 110.989 12.128 109.688 12.128C108.547 12.128 107.581 11.7227 106.792 10.912C106.003 10.1013 105.608 9.11467 105.608 7.952C105.608 6.78933 106.003 5.808 106.792 5.008C107.581 4.19733 108.547 3.792 109.688 3.792C111 3.792 112.003 4.32 112.696 5.376V4ZM107.816 9.984C108.36 10.528 109.037 10.8 109.848 10.8C110.659 10.8 111.336 10.528 111.88 9.984C112.424 9.44 112.696 8.76267 112.696 7.952C112.696 7.152 112.424 6.48 111.88 5.936C111.336 5.392 110.659 5.12 109.848 5.12C109.037 5.12 108.36 5.392 107.816 5.936C107.272 6.48 107 7.152 107 7.952C107 8.76267 107.272 9.44 107.816 9.984ZM124.821 3.792C125.717 3.792 126.442 4.08533 126.997 4.672C127.552 5.248 127.829 6.032 127.829 7.024V12H126.437V7.072C126.437 6.45333 126.277 5.97333 125.957 5.632C125.637 5.29067 125.21 5.12 124.677 5.12C124.08 5.12 123.6 5.32267 123.237 5.728C122.885 6.12267 122.709 6.73067 122.709 7.552V12H121.317V7.072C121.317 6.45333 121.162 5.97333 120.853 5.632C120.554 5.29067 120.144 5.12 119.621 5.12C119.034 5.12 118.544 5.32267 118.149 5.728C117.765 6.13333 117.573 6.74133 117.573 7.552V12H116.181V4H117.573V5.072C118.117 4.21867 118.912 3.792 119.957 3.792C121.034 3.792 121.818 4.24533 122.309 5.152C122.864 4.24533 123.701 3.792 124.821 3.792ZM136.383 4H137.775V12H136.383V10.624C135.69 11.68 134.682 12.208 133.359 12.208C132.239 12.208 131.284 11.8027 130.495 10.992C129.706 10.1707 129.311 9.17333 129.311 8C129.311 6.82667 129.706 5.83467 130.495 5.024C131.284 4.20267 132.239 3.792 133.359 3.792C134.682 3.792 135.69 4.32 136.383 5.376V4ZM133.535 10.864C134.346 10.864 135.023 10.592 135.567 10.048C136.111 9.49333 136.383 8.81067 136.383 8C136.383 7.18933 136.111 6.512 135.567 5.968C135.023 5.41333 134.346 5.136 133.535 5.136C132.735 5.136 132.063 5.41333 131.519 5.968C130.975 6.512 130.703 7.18933 130.703 8C130.703 8.81067 130.975 9.49333 131.519 10.048C132.063 10.592 132.735 10.864 133.535 10.864ZM140.588 2.544C140.321 2.544 140.097 2.45333 139.916 2.272C139.735 2.09067 139.644 1.872 139.644 1.616C139.644 1.36 139.735 1.14133 139.916 0.959999C140.097 0.768 140.321 0.672 140.588 0.672C140.844 0.672 141.063 0.768 141.244 0.959999C141.425 1.14133 141.516 1.36 141.516 1.616C141.516 1.872 141.425 2.09067 141.244 2.272C141.063 2.45333 140.844 2.544 140.588 2.544ZM139.884 12V4H141.276V12H139.884ZM143.4 12V0.32H144.792V12H143.4ZM147.795 12.176C147.507 12.176 147.262 12.0747 147.059 11.872C146.857 11.6693 146.755 11.424 146.755 11.136C146.755 10.848 146.857 10.6027 147.059 10.4C147.262 10.1973 147.507 10.096 147.795 10.096C148.094 10.096 148.339 10.1973 148.531 10.4C148.734 10.6027 148.835 10.848 148.835 11.136C148.835 11.424 148.734 11.6693 148.531 11.872C148.339 12.0747 148.094 12.176 147.795 12.176ZM153.925 12.208C152.72 12.208 151.717 11.808 150.917 11.008C150.117 10.1973 149.717 9.19467 149.717 8C149.717 6.80533 150.117 5.808 150.917 5.008C151.717 4.19733 152.72 3.792 153.925 3.792C154.715 3.792 155.424 3.984 156.053 4.368C156.683 4.74133 157.152 5.248 157.461 5.888L156.293 6.56C156.091 6.13333 155.776 5.792 155.349 5.536C154.933 5.28 154.459 5.152 153.925 5.152C153.125 5.152 152.453 5.424 151.909 5.968C151.376 6.512 151.109 7.18933 151.109 8C151.109 8.8 151.376 9.472 151.909 10.016C152.453 10.56 153.125 10.832 153.925 10.832C154.459 10.832 154.939 10.7093 155.365 10.464C155.792 10.208 156.117 9.86667 156.341 9.44L157.525 10.128C157.184 10.7573 156.693 11.264 156.053 11.648C155.413 12.0213 154.704 12.208 153.925 12.208ZM165.542 10.992C164.721 11.8027 163.724 12.208 162.55 12.208C161.377 12.208 160.38 11.8027 159.558 10.992C158.748 10.1813 158.342 9.184 158.342 8C158.342 6.816 158.748 5.81867 159.558 5.008C160.38 4.19733 161.377 3.792 162.55 3.792C163.724 3.792 164.721 4.19733 165.542 5.008C166.364 5.81867 166.774 6.816 166.774 8C166.774 9.184 166.364 10.1813 165.542 10.992ZM162.55 10.848C163.35 10.848 164.022 10.576 164.566 10.032C165.11 9.488 165.382 8.81067 165.382 8C165.382 7.18933 165.11 6.512 164.566 5.968C164.022 5.424 163.35 5.152 162.55 5.152C161.761 5.152 161.094 5.424 160.55 5.968C160.006 6.512 159.734 7.18933 159.734 8C159.734 8.81067 160.006 9.488 160.55 10.032C161.094 10.576 161.761 10.848 162.55 10.848ZM177.055 3.792C177.951 3.792 178.677 4.08533 179.231 4.672C179.786 5.248 180.063 6.032 180.063 7.024V12H178.671V7.072C178.671 6.45333 178.511 5.97333 178.191 5.632C177.871 5.29067 177.445 5.12 176.911 5.12C176.314 5.12 175.834 5.32267 175.471 5.728C175.119 6.12267 174.943 6.73067 174.943 7.552V12H173.551V7.072C173.551 6.45333 173.397 5.97333 173.087 5.632C172.789 5.29067 172.378 5.12 171.855 5.12C171.269 5.12 170.778 5.32267 170.383 5.728C169.999 6.13333 169.807 6.74133 169.807 7.552V12H168.415V4H169.807V5.072C170.351 4.21867 171.146 3.792 172.191 3.792C173.269 3.792 174.053 4.24533 174.543 5.152C175.098 4.24533 175.935 3.792 177.055 3.792Z" fill="white"/>
</svg>
