<svg width="20" height="20" viewBox="0 0 20 20" fill="none" xmlns="http://www.w3.org/2000/svg">
<g clip-path="url(#clip0_3073_1552)">
<path d="M10 20C15.5228 20 20 15.5228 20 10C20 4.47715 15.5228 0 10 0C4.47715 0 0 4.47715 0 10C0 15.5228 4.47715 20 10 20Z" fill="white"/>
<path d="M14.5938 5.1875H5.40625C5.00027 5.18793 4.61104 5.3494 4.32397 5.63647C4.0369 5.92354 3.87543 6.31277 3.875 6.71875V13.2812C3.87543 13.6872 4.0369 14.0765 4.32397 14.3635C4.61104 14.6506 5.00027 14.8121 5.40625 14.8125H14.5938C14.9997 14.8121 15.389 14.6506 15.676 14.3635C15.9631 14.0765 16.1246 13.6872 16.125 13.2812V6.71875C16.1246 6.31277 15.9631 5.92354 15.676 5.63647C15.389 5.3494 14.9997 5.18793 14.5938 5.1875ZM14.206 7.72035L10.2685 10.7829C10.1917 10.8425 10.0973 10.8749 10 10.8749C9.90275 10.8749 9.80827 10.8425 9.73148 10.7829L5.79398 7.72035C5.74772 7.68542 5.70886 7.64163 5.67967 7.59155C5.65047 7.54147 5.63152 7.48608 5.62392 7.42861C5.61632 7.37114 5.62021 7.31273 5.63537 7.25678C5.65054 7.20083 5.67667 7.14844 5.71225 7.10268C5.74784 7.05691 5.79216 7.01868 5.84265 6.99019C5.89314 6.9617 5.94879 6.94353 6.00636 6.93674C6.06393 6.92994 6.12228 6.93466 6.17801 6.95061C6.23375 6.96656 6.28576 6.99342 6.33102 7.02965L10 9.88324L13.669 7.02965C13.7607 6.96037 13.8761 6.92998 13.99 6.94506C14.104 6.96014 14.2075 7.01948 14.278 7.11024C14.3486 7.201 14.3806 7.31589 14.3671 7.43006C14.3536 7.54423 14.2958 7.64851 14.206 7.72035Z" fill="black"/>
</g>
<defs>
<clipPath id="clip0_3073_1552">
<rect width="20" height="20" fill="white"/>
</clipPath>
</defs>
</svg>
