<svg width="24" height="24" viewBox="0 0 24 24" fill="none" xmlns="http://www.w3.org/2000/svg">
<mask id="mask0_3129_18837" style="mask-type:alpha" maskUnits="userSpaceOnUse" x="0" y="0" width="24" height="24">
<circle cx="12" cy="12" r="12" fill="#D9D9D9"/>
</mask>
<g mask="url(#mask0_3129_18837)">
<rect width="24" height="24" fill="#004692"/>
<path d="M14.2633 11.0023L13.5562 11.7094L22.0415 20.1947L22.7486 19.4876L14.2633 11.0023Z" fill="#F5F7F8"/>
<path d="M12.3777 12.8879L11.1992 14.0664L19.6845 22.5517L20.863 21.3732L12.3777 12.8879Z" fill="#F5F7F8"/>
<path d="M12.3777 12.8879L13.5562 11.7094L22.0415 20.1947L20.863 21.3732L12.3777 12.8879Z" fill="#DD2033"/>
<path d="M12.7487 14.0641L12.0416 13.357L3.55631 21.8423L4.26342 22.5494L12.7487 14.0641Z" fill="#F5F7F8"/>
<path d="M10.8631 12.1785L9.68457 11L1.19929 19.4853L2.3778 20.6638L10.8631 12.1785Z" fill="#F5F7F8"/>
<path d="M10.8631 12.1785L12.0416 13.357L3.55631 21.8423L2.3778 20.6638L10.8631 12.1785Z" fill="#DD2033"/>
<path d="M10.0189 13.5495L10.726 12.8424L2.2407 4.35709L1.5336 5.0642L10.0189 13.5495Z" fill="#F5F7F8"/>
<path d="M11.9045 11.6639L13.083 10.4854L4.59773 2.00007L3.41922 3.17858L11.9045 11.6639Z" fill="#F5F7F8"/>
<path d="M11.9045 11.6639L10.726 12.8424L2.2407 4.35709L3.41922 3.17858L11.9045 11.6639Z" fill="#DD2033"/>
<path d="M10.8665 10.4867L11.5736 11.1938L20.0589 2.70848L19.3518 2.00137L10.8665 10.4867Z" fill="#F5F7F8"/>
<path d="M12.7522 12.3723L13.9307 13.5508L22.4159 5.0655L21.2374 3.88699L12.7522 12.3723Z" fill="#F5F7F8"/>
<path d="M12.7522 12.3723L11.5736 11.1938L20.0589 2.70848L21.2374 3.88699L12.7522 12.3723Z" fill="#DD2033"/>
<path fill-rule="evenodd" clip-rule="evenodd" d="M10 24H8.33333V15.6667H0V14H8.33333L8.33333 10L0 10V8.33333L8.33333 8.33333L8.33334 0H10V8.33333H14L14 0H15.6667L15.6667 8.33333L24 8.33333V10H15.6667V14L24 14V15.6667L15.6667 15.6667L15.6667 24H14L14 15.6667H10L10 24ZM14 10H10L10 14H14V10Z" fill="#F5F7F8"/>
<path d="M10 24H14L14 14H24V10H14L14 0H10V10L0 10V14H10L10 24Z" fill="#DD2033"/>
</g>
</svg>
