<svg width="86" height="23" viewBox="0 0 86 23" fill="none" xmlns="http://www.w3.org/2000/svg">
<path d="M39.656 20.176C37.176 22.016 33.776 22.936 29.456 22.936C26.24 22.936 22.92 22.344 19.496 21.16C16.072 19.976 12.752 18.28 9.536 16.072C9.168 16.136 8.736 16.168 8.24 16.168C6.72 16.168 5.352 15.816 4.136 15.112C2.936 14.408 1.992 13.456 1.304 12.256C0.632 11.04 0.296 9.696 0.296 8.224C0.296 6.688 0.664 5.296 1.4 4.048C2.152 2.8 3.16 1.824 4.424 1.12C5.704 0.4 7.104 0.0399995 8.624 0.0399995C10.144 0.0399995 11.512 0.391999 12.728 1.096C13.944 1.8 14.896 2.76 15.584 3.976C16.272 5.192 16.616 6.536 16.616 8.008C16.616 9.672 16.168 11.168 15.272 12.496C14.392 13.808 13.232 14.784 11.792 15.424C15.216 17.296 18.472 18.664 21.56 19.528C24.648 20.392 27.728 20.824 30.8 20.824C32.352 20.824 33.824 20.664 35.216 20.344C36.608 20.024 37.792 19.56 38.768 18.952L39.656 20.176ZM3.008 7.744C3.008 9.04 3.24 10.184 3.704 11.176C4.184 12.168 4.848 12.944 5.696 13.504C6.56 14.048 7.552 14.32 8.672 14.32C9.696 14.32 10.6 14.08 11.384 13.6C12.168 13.104 12.776 12.416 13.208 11.536C13.656 10.656 13.88 9.64 13.88 8.488C13.88 7.192 13.64 6.048 13.16 5.056C12.696 4.064 12.032 3.296 11.168 2.752C10.32 2.208 9.336 1.936 8.216 1.936C7.192 1.936 6.288 2.184 5.504 2.68C4.72 3.16 4.104 3.84 3.656 4.72C3.224 5.584 3.008 6.592 3.008 7.744ZM33.3009 16H30.5169L28.7409 11.176H22.8369L21.1569 16H18.5649L24.7569 0.207999H27.0849L33.3009 16ZM25.7169 2.944L23.5569 9.16H27.9969L25.7169 2.944ZM48.5105 16H45.3425L41.2625 9.496C41.1505 9.512 40.9825 9.52 40.7585 9.52H38.9825V16H36.4625V0.207999H41.0465C42.7265 0.207999 44.0465 0.575999 45.0065 1.312C45.9665 2.032 46.4465 3.064 46.4465 4.408C46.4465 5.416 46.1745 6.328 45.6305 7.144C45.0865 7.944 44.3505 8.552 43.4225 8.968L48.5105 16ZM38.9825 7.768H41.0705C41.9825 7.768 42.7105 7.496 43.2545 6.952C43.8145 6.408 44.0945 5.704 44.0945 4.84C44.0945 3.976 43.8145 3.312 43.2545 2.848C42.6945 2.384 41.8865 2.152 40.8305 2.152H38.9825V7.768ZM58.3019 12.136C58.3019 11.432 58.0299 10.864 57.4859 10.432C56.9579 9.984 56.1579 9.504 55.0859 8.992C54.1899 8.56 53.4619 8.168 52.9019 7.816C52.3579 7.464 51.8939 7 51.5099 6.424C51.1259 5.848 50.9339 5.144 50.9339 4.312C50.9339 3.416 51.1659 2.648 51.6299 2.008C52.0939 1.352 52.7099 0.863999 53.4779 0.543999C54.2619 0.207999 55.1339 0.0399995 56.0939 0.0399995C56.8139 0.0399995 57.5579 0.135999 58.3259 0.327999C59.1099 0.503999 59.7899 0.759999 60.3659 1.096L59.1179 3.088C58.6539 2.72 58.1019 2.44 57.4619 2.248C56.8379 2.04 56.2379 1.936 55.6619 1.936C54.8459 1.936 54.2379 2.136 53.8379 2.536C53.4379 2.92 53.2379 3.376 53.2379 3.904C53.2379 4.336 53.3659 4.72 53.6219 5.056C53.8939 5.376 54.2219 5.664 54.6059 5.92C54.9899 6.16 55.5419 6.464 56.2619 6.832C57.1739 7.296 57.9179 7.728 58.4939 8.128C59.0859 8.512 59.5899 9.016 60.0059 9.64C60.4219 10.264 60.6299 11.016 60.6299 11.896C60.6299 13.288 60.1099 14.352 59.0699 15.088C58.0299 15.808 56.7259 16.168 55.1579 16.168C54.1659 16.168 53.2299 16.032 52.3499 15.76C51.4699 15.472 50.7419 15.104 50.1659 14.656L51.6299 12.544C52.1739 13.072 52.7979 13.496 53.5019 13.816C54.2219 14.12 54.9339 14.272 55.6379 14.272C56.4539 14.272 57.1019 14.08 57.5819 13.696C58.0619 13.312 58.3019 12.792 58.3019 12.136ZM75.1113 6.976V0.207999H77.6793V16H75.1113V8.992H66.6633V16H64.0953V0.207999H66.6633V6.976H75.1113ZM85.2783 16H82.6143V0.207999H85.2063L85.2783 16Z" fill="white"/>
</svg>
