<svg width="20" height="20" viewBox="0 0 20 20" fill="none" xmlns="http://www.w3.org/2000/svg">
<g clip-path="url(#clip0_1113_10122)">
<path d="M10 20C15.5228 20 20 15.5228 20 10C20 4.47715 15.5228 0 10 0C4.47715 0 0 4.47715 0 10C0 15.5228 4.47715 20 10 20Z" fill="white"/>
<path fill-rule="evenodd" clip-rule="evenodd" d="M4.52657 9.89446C7.44177 8.62435 9.3857 7.78702 10.3583 7.38246C13.1355 6.22737 13.7125 6.02672 14.0886 6.02009C14.1714 6.01863 14.3563 6.03913 14.4761 6.13635C14.5773 6.21844 14.6051 6.32934 14.6185 6.40717C14.6318 6.485 14.6484 6.6623 14.6352 6.80083C14.4847 8.38207 13.8335 12.2193 13.5022 13.9903C13.362 14.7397 13.086 14.991 12.8188 15.0155C12.2381 15.069 11.7971 14.6318 11.2347 14.2631C10.3545 13.6861 9.85732 13.327 9.003 12.764C8.01569 12.1134 8.65572 11.7558 9.21839 11.1714C9.36564 11.0184 11.9243 8.69115 11.9738 8.48002C11.98 8.45362 11.9858 8.3552 11.9273 8.30322C11.8688 8.25125 11.7825 8.26903 11.7202 8.28316C11.632 8.30319 10.226 9.23252 7.50219 11.0711C7.1031 11.3452 6.74161 11.4787 6.41773 11.4717C6.06068 11.464 5.37385 11.2698 4.86327 11.1039C4.23702 10.9003 3.73929 10.7927 3.78263 10.4469C3.8052 10.2669 4.05318 10.0827 4.52657 9.89446Z" fill="black"/>
</g>
<defs>
<clipPath id="clip0_1113_10122">
<rect width="20" height="20" fill="white"/>
</clipPath>
</defs>
</svg>
